<?xml version="1.0" encoding="utf-8" ?><svg xmlns="http://www.w3.org/2000/svg" xmlns:xlink="http://www.w3.org/1999/xlink" width="2134" height="828" viewBox="0 0 2134 828"><clipPath id="cl_4"><rect y="-0.00018310547" width="2134" height="827.85223"/></clipPath><g clip-path="url(#cl_4)"><path fill="#ef8354" transform="matrix(1 0 0 0.999822 -1006 -939.833)" d="M1494.19 1119.66C1544.24 1086.17 1632.88 1089.08 1681.58 1122.2C1746.37 1166.25 1774.26 1228.64 1776.06 1288.15C1776.71 1306.55 1767.01 1336.22 1769.44 1349.11L1824.92 1348.97C1834.1 1349 1853.66 1349.86 1860.61 1347.24C1858.09 1336.4 1859.25 1298.43 1859.21 1285.19L1859.66 1147.49C1900.36 1146.34 1955.51 1147.44 1997.29 1147.5C1999.38 1199.65 1997.36 1257.54 1997.24 1310.07L1997.68 1348.8C2026.37 1348.74 2055.99 1349.24 2084.75 1349.5C2087.99 1293.63 2084.15 1234.29 2086.35 1177.89C2086.29 1168.1 2085.88 1157.33 2086.59 1147.64C2128.44 1147.63 2181.79 1146.67 2222.85 1148.27C2223.38 1159.56 2223.55 1170.87 2223.34 1182.17L2225.99 1183.74C2233.15 1181.35 2247.87 1158.89 2254.21 1152.47C2333.7 1071.99 2469.98 1087.29 2532.84 1168.94C2578.73 1228.57 2577 1284.07 2567.35 1348.76C2594.01 1348.72 2648.82 1349.82 2673.53 1348.46C2670.53 1340.6 2671.24 1297.02 2671.19 1286.76L2670.64 1147.68C2716.61 1147.48 2762.58 1147.46 2808.55 1147.62C2809.14 1160.92 2808.93 1175.24 2809.09 1188.62C2809.65 1241.83 2808.05 1295.95 2809.08 1348.86L2932.64 1348.93L2931.45 1219.49C2931.32 1197.53 2930.11 1169.62 2931.64 1147.95L3068.52 1147.74C3068.62 1157.44 3069.73 1182.8 3068.29 1191.59C3071.85 1221.91 3070.88 1259.68 3070.09 1290.49C3067.75 1381.89 3073.17 1475.18 3068.89 1566.4C3051.7 1566.47 3022.89 1567.12 3006.63 1566.42C2941.73 1566.78 2876.84 1566.92 2811.94 1566.84L2811.39 1479.18C2811.24 1457.6 2812.03 1431.63 2807.32 1410.64C2791.66 1462.68 2759.48 1520.34 2688.01 1551.41C2646.23 1569.58 2605.31 1566.58 2556.88 1566.55L2431.5 1566.42L1999.02 1566.9C1997.45 1532.75 1999.74 1497.86 1999.03 1463.65C1998.66 1445.88 1999.24 1423.55 1995.15 1406.08C1977.92 1459.94 1956.33 1516.73 1878.69 1549.45C1861.46 1556.86 1841.97 1561.82 1821.51 1563.99C1786.4 1567.86 1703.35 1566.53 1664.2 1566.49L1425.46 1566.97C1416.48 1621.5 1385.93 1682.9 1317.09 1718.3C1265.11 1745.03 1213.65 1746.78 1155.61 1727.06C1023.14 1668.11 1028.43 1561.79 1028.61 1470.29L1028.97 1348.81C1070.98 1347.65 1124.22 1348.49 1166.89 1348.54C1167.85 1354.67 1167.7 1365.31 1167.88 1371.83C1168.93 1408.28 1166.42 1444.08 1166.43 1481.07C1166.97 1505.26 1159.14 1575.14 1192.4 1591.79C1265.3 1628.29 1293.07 1559.02 1288.49 1524.34C1287.1 1513.82 1288.41 1499.08 1288.36 1491.92L1288.01 1414.4L1287.86 1147.52L1426.23 1147.57C1426.03 1160.9 1425.93 1172.66 1427.01 1186.03C1435.3 1174.15 1447.72 1154.61 1460.25 1145.15C1468.35 1135.38 1481.96 1127.49 1494.19 1119.66ZM2442.05 1384.83C2432.5 1413.86 2417.39 1431.81 2383.48 1451.37C2384.36 1457.7 2385.65 1475.73 2392.53 1479.67C2529.04 1448.26 2554.87 1244.72 2429.52 1245.72C2367.06 1260.34 2358.1 1317.17 2378.53 1352.11C2391.19 1373.74 2409.52 1380.21 2442.05 1384.83ZM1430.77 1478.17C1441.28 1479.16 1453.08 1473.89 1461.39 1469.7C1513.19 1443.57 1537.4 1401.11 1546.35 1360.49C1553.96 1325.97 1550.66 1244.83 1471.02 1246.95C1399.07 1259.34 1390.82 1348.39 1447.02 1376.17C1455.69 1380.46 1474.82 1380.92 1482.03 1386.1C1482.45 1408.45 1449.06 1439.09 1421.64 1452.32C1425.49 1461.64 1428.16 1468.7 1430.77 1478.17ZM2270.74 1246.04C2249.08 1249.52 2238.23 1255.27 2225.85 1268.17C2195.15 1300.17 2199.73 1357.13 2251.86 1379.12C2259.05 1382.15 2270.11 1382.53 2278.64 1383.01C2273.01 1410.78 2254.79 1435.14 2220.82 1453.39C2223.12 1460.96 2225.67 1474 2228.83 1480.47C2357.96 1456.74 2400.1 1248.84 2270.74 1246.04ZM1635.89 1246.02C1571.78 1256.83 1564.2 1312.25 1578.68 1346.9C1589.41 1372.58 1606.23 1376.51 1641.56 1386.14C1645.86 1411.68 1609.84 1437.79 1583.51 1454.11C1586.39 1462.22 1589 1470.52 1593.25 1478.36C1601.01 1479.27 1616.62 1472.46 1623.21 1469.25C1673.97 1444.52 1694.15 1406.11 1706.39 1367.93C1716.89 1335.13 1717.69 1253.76 1647.63 1246.77C1643.74 1246.39 1639.82 1246.14 1635.89 1246.02Z"/><path fill="#0F0D0A" transform="matrix(1 0 0 0.999822 -1006 -939.833)" d="M1028.97 1348.81C1070.98 1347.65 1124.22 1348.49 1166.89 1348.54C1167.85 1354.67 1167.7 1365.31 1167.88 1371.83C1162.88 1364.29 1161.52 1362.82 1152.82 1356.77C1131.98 1356.32 1053.95 1353.73 1039.18 1358.25C1032.38 1371.65 1035.96 1528.61 1037.58 1549.34C1038.74 1562.99 1040.94 1576.59 1044.2 1590.1C1057.87 1645.89 1087.42 1685.94 1152.92 1719.22C1155.56 1720.57 1155.3 1724.66 1155.61 1727.06C1023.14 1668.11 1028.43 1561.79 1028.61 1470.29L1028.97 1348.81Z"/><path fill="#0F0D0A" transform="matrix(1 0 0 0.999822 -1006 -939.833)" d="M1859.66 1147.49C1900.36 1146.34 1955.51 1147.44 1997.29 1147.5C1999.38 1199.65 1997.36 1257.54 1997.24 1310.07C1993.77 1298.77 1996.15 1280.74 1995.67 1268.86C1994.16 1230.74 2000.09 1191.36 1991.87 1153.57C1987.63 1151.73 1976.22 1152.28 1971.39 1153.32C1975.43 1156.05 1983.87 1154.6 1989.3 1153.85C1979.21 1160.18 1897.65 1146.96 1872.11 1159.57C1854.9 1178.41 1878 1326.37 1860.61 1347.24C1858.09 1336.4 1859.25 1298.43 1859.21 1285.19L1859.66 1147.49Z"/><path fill="#0F0D0A" transform="matrix(1 0 0 0.999822 -1006 -939.833)" d="M2670.64 1147.68C2716.61 1147.48 2762.58 1147.46 2808.55 1147.62C2809.14 1160.92 2808.93 1175.24 2809.09 1188.62C2804.48 1175.77 2804.32 1168.98 2804.65 1155.7C2769.57 1159.45 2724.37 1152.03 2680.51 1156.61C2671.67 1187.98 2686.27 1334.1 2673.53 1348.46C2670.53 1340.6 2671.24 1297.02 2671.19 1286.76L2670.64 1147.68Z"/><path fill="#0F0D0A" transform="matrix(1 0 0 0.999822 -1006 -939.833)" d="M3068.29 1191.59C3071.85 1221.91 3070.88 1259.68 3070.09 1290.49C3067.75 1381.89 3073.17 1475.18 3068.89 1566.4C3051.7 1566.47 3022.89 1567.12 3006.63 1566.42C3014.25 1561.78 3048.13 1565.67 3062.34 1563.06L3062.41 1561.65C3055.95 1561.28 3057.18 1562.17 3053.87 1560.17C3071.13 1546.89 3065.06 1453.38 3065.02 1432.23L3067.03 1275.9C3067 1256.85 3065.04 1208.33 3068.29 1191.59Z"/><path fill="#0F0D0A" transform="matrix(1 0 0 0.999822 -1006 -939.833)" d="M2086.59 1147.64C2128.44 1147.63 2181.79 1146.67 2222.85 1148.27C2223.38 1159.56 2223.55 1170.87 2223.34 1182.17C2219.22 1171.8 2219.15 1167.05 2218.37 1156.25C2168.22 1153.16 2139.71 1153.76 2090.5 1156.33C2088.72 1162.98 2091.75 1171.15 2086.35 1177.89C2086.29 1168.1 2085.88 1157.33 2086.59 1147.64Z"/><path fill="#0F0D0A" transform="matrix(1 0 0 0.999822 -1006 -939.833)" d="M1769.44 1349.11L1824.92 1348.97C1833.97 1350.23 1848.11 1349.95 1857.75 1350.02C1841.06 1356.13 1779.04 1361.45 1769.44 1349.11Z"/><path fill="#0F0D0A" transform="matrix(1 0 0 0.999822 -1006 -939.833)" d="M1460.25 1145.15C1468.35 1135.38 1481.96 1127.49 1494.19 1119.66L1501.59 1120.85C1502.72 1129.62 1480.03 1143.18 1467.89 1146.51C1462.66 1146.33 1464.46 1146.79 1460.25 1145.15Z"/><path fill="#0F0D0A" transform="matrix(1 0 0 0.999822 -1006 -939.833)" d="M2807.27 1350.2C2827.34 1349.71 2910.57 1349.21 2925.64 1350.74L2925.4 1353.1C2898.8 1354.29 2826.41 1359.74 2807.27 1350.2Z"/><path fill="#ef8354" transform="matrix(1 0 0 0.999822 -1006 -939.833)" d="M1842.38 1607.79C1859.82 1607.51 1876.52 1613.12 1884.26 1623.11C1923.28 1673.49 1889.46 1741.23 1819.29 1770.46C1814.4 1765.46 1815.13 1757.74 1814.76 1751.65C1840.08 1736.75 1846.99 1724.93 1857.14 1704.53C1853.65 1704.1 1850.17 1703.63 1846.72 1703.1C1787.91 1693.86 1786.02 1626.86 1842.38 1607.79Z"/><path fill="#ef8354" transform="matrix(1 0 0 0.999822 -1006 -939.833)" d="M2909.74 955.624C2944.24 959.042 2955.49 989.22 2958.59 1008.16C2964.11 1040.74 2948.94 1073.37 2916.51 1098.68C2908.58 1104.84 2889.85 1116.23 2877.51 1116.97C2876.49 1110.62 2873.8 1106.55 2870.6 1100.55L2875.46 1097.66C2898.84 1083.98 2909.08 1072.32 2914.07 1052.31C2892.56 1048.61 2875.47 1042.1 2868.37 1027.8C2854.37 999.61 2862.99 966.577 2909.74 955.624Z"/><path fill="#ef8354" transform="matrix(1 0 0 0.999822 -1006 -939.833)" d="M1956.14 1609.07C1975.55 1609.32 1992.49 1614.59 2000.03 1626.59C2029.47 1673.43 2001.35 1746.43 1929.48 1770.29C1927.8 1765.33 1927 1755.97 1926.3 1750.6C1953.31 1732.47 1957.01 1725.99 1968.15 1701.69C1963.11 1701.21 1951.31 1700.24 1947.04 1698.84C1910.9 1687.05 1907.08 1652.4 1921.17 1630.85C1928.62 1619.46 1939.01 1613.58 1956.14 1609.07Z"/><path fill="#ef8354" transform="matrix(1 0 0 0.999822 -1006 -939.833)" d="M3024.07 1051.1C3004.05 1047.31 2994.85 1045.45 2982.24 1032.29C2960.13 1009.22 2979.08 950.902 3034.18 959.101C3043.79 960.53 3053.2 968.669 3057.47 974.476C3069.32 990.553 3073.95 1026 3064.8 1042.31C3060 1074.99 3030.73 1101.14 2989.94 1119.69C2987.32 1111.97 2984.84 1106.14 2986.21 1098.15C2987.37 1096.17 2987.37 1096.08 2990.08 1094.79C3016.93 1082.06 3019.24 1071.16 3024.07 1051.1Z"/><path fill="#0F0D0A" transform="matrix(1 0 0 0.999822 -1006 -939.833)" d="M2986.21 1098.15C2991.38 1100.01 2990.76 1101.33 2999.9 1104.14C3032.11 1102.17 3053.44 1048.61 3064.8 1042.31C3060 1074.99 3030.73 1101.14 2989.94 1119.69C2987.32 1111.97 2984.84 1106.14 2986.21 1098.15Z"/><path fill="#ef8354" transform="matrix(1 0 0 0.999822 -1006 -939.833)" d="M2792.66 1034.6C2785.53 1075.93 2721.63 1094.1 2692.68 1046.89C2672.87 1014.59 2703.95 947.208 2764.96 970.778C2790.35 983.768 2804 1015.37 2792.66 1034.6Z"/><path fill="#0F0D0A" transform="matrix(1 0 0 0.999822 -1006 -939.833)" d="M2792.66 1034.6C2785.53 1075.93 2721.63 1094.1 2692.68 1046.89C2672.87 1014.59 2703.95 947.208 2764.96 970.778L2760.82 974.862C2711.11 974.131 2699.26 989.338 2695.39 1020.35C2693.41 1036.22 2702.83 1051.78 2720.02 1063.06C2760 1089.3 2779.01 1039.63 2792.66 1034.6Z"/><path fill="#0F0D0A" transform="matrix(1 0 0 0.999822 -1006 -939.833)" d="M2407.99 1631.53C2429.7 1633.72 2439.61 1653.8 2449.05 1665.85C2449.15 1657.11 2447.75 1639.82 2456.13 1633.49L2459.11 1634.66C2465.47 1645.58 2466.44 1683.71 2459.41 1693.63C2436.53 1685.93 2439.05 1672.95 2422.57 1662.59C2417.63 1667.39 2427.23 1687.07 2415.34 1691.65L2410.3 1690.17C2404.38 1683.99 2406.63 1640.58 2407.99 1631.53Z"/><path fill="#0F0D0A" transform="matrix(1 0 0 0.999822 -1006 -939.833)" d="M2331.5 1631.58C2336.68 1632.1 2336.76 1632.2 2341.59 1633.58C2350.46 1640.76 2369.86 1684.03 2364.11 1692.1L2358.19 1692.44C2352.83 1689.97 2353.32 1687.23 2350.84 1682.06L2346.42 1680.83C2306.54 1680.31 2328.16 1687.4 2309.74 1693.46L2307.49 1691.46C2306.09 1684.83 2326.92 1640.81 2331.5 1631.58Z"/><path fill="#0F0D0A" transform="matrix(1 0 0 0.999822 -1006 -939.833)" d="M2591.78 1632.1C2605.62 1631.8 2640.07 1627.94 2636.91 1642.05C2630.55 1645.18 2616.05 1645.08 2607.39 1645.5C2603.14 1649.74 2604.03 1647.54 2603.79 1652.17C2608.84 1655.41 2619.61 1654.41 2629.97 1657.35C2634.07 1661.24 2633.23 1659.14 2632.48 1663.86C2620.6 1671.67 2610.64 1660.31 2602.48 1676.5C2611.67 1683.8 2641.86 1678.41 2638.01 1688.52C2627.51 1694.97 2607.88 1692.87 2591.67 1692.76C2590.58 1675.1 2590.92 1649.6 2591.78 1632.1Z"/><path fill="#0F0D0A" transform="matrix(1 0 0 0.999822 -1006 -939.833)" d="M2683.33 1631.52C2694.82 1631.43 2727.32 1629.36 2723.72 1641.77C2717.37 1644.78 2706.22 1644.56 2696.3 1646.37C2693.09 1649.26 2692.98 1649.01 2693.01 1652.52C2701.11 1657.34 2714.78 1651.65 2719.71 1659.11C2715.43 1671.48 2709.28 1662.73 2694.66 1669.01C2690.97 1672.35 2691.82 1674.32 2691.96 1678.5L2692.04 1680.11C2702.53 1682.49 2709.39 1679.81 2722.21 1683.12C2724.59 1686.66 2724.21 1684.8 2722.54 1688.92C2712.01 1694.16 2693.27 1692.29 2679.25 1692.03C2678.93 1674.32 2677.56 1656.19 2678.32 1638.47C2678.52 1633.9 2679.34 1633.66 2683.33 1631.52Z"/><path fill="#0F0D0A" transform="matrix(1 0 0 0.999822 -1006 -939.833)" d="M2521.33 1632.22C2533.82 1631.99 2545.58 1631.37 2548.87 1640.71L2546.29 1643.23C2539.26 1645.41 2537.17 1644.86 2528.89 1644.44L2526.19 1644.29C2520.69 1646.49 2522.28 1645 2520.62 1648.61C2528.68 1661.26 2583.99 1677.71 2529.47 1693.29C2516.39 1691.78 2506.12 1689.51 2501.56 1680.37C2508.78 1674.48 2524.75 1683.1 2535.12 1678.46C2532.88 1669.34 2470.87 1650.95 2521.33 1632.22Z"/><path fill="#0F0D0A" transform="matrix(1 0 0 0.999822 -1006 -939.833)" d="M2784.41 1631.08C2796.15 1631.9 2804.84 1633.92 2808.26 1642.02C2801.48 1648.04 2788.63 1642.13 2777.87 1645.98C2770.77 1658.03 2810.71 1660.35 2811.42 1676.95C2811.86 1687.14 2794.52 1692.25 2782.43 1693.69C2772.29 1692.35 2756.44 1687.49 2762.44 1679.45C2773.71 1677.27 2788.11 1684.71 2792.06 1678.63C2787.14 1667.32 2726.5 1644.62 2784.41 1631.08Z"/><path fill="#0F0D0A" transform="matrix(1 0 0 0.999822 -1006 -939.833)" d="M2229.94 1632.78C2240.93 1632.59 2267.58 1631.43 2276.49 1634.71L2277.22 1637.11C2272.95 1641.19 2266.54 1643.27 2260.03 1645.95C2257.3 1654.13 2258.45 1676.57 2258.49 1686.45C2256.57 1691.14 2258.58 1689.48 2253.27 1692.02L2249.4 1690.61C2241.44 1681.42 2247.66 1659.36 2245.28 1647.17C2238.75 1641.99 2232.5 1645.48 2225.42 1640.48C2225.58 1636.67 2226.86 1636.06 2229.94 1632.78Z"/></g></svg>