<svg width="1783" height="779" xmlns="http://www.w3.org/2000/svg" xmlns:xlink="http://www.w3.org/1999/xlink" xml:space="preserve" overflow="hidden"><defs><clipPath id="clip0"><rect x="1260" y="1709" width="1783" height="779"/></clipPath><clipPath id="clip1"><rect x="1260" y="1709" width="1783" height="779"/></clipPath></defs><g clip-path="url(#clip0)" transform="translate(-1260 -1709)"><g clip-path="url(#clip1)"><path d="M2222 2384 2222 2442.14 2059 2487 2059 2428.82 2222 2384Z" fill="#FFFFFF" fill-rule="evenodd" fill-opacity="1"/><path d="M2222 2289 2222 2347.14 2059 2392 2059 2333.82 2222 2289Z" fill="#FFFFFF" fill-rule="evenodd" fill-opacity="1"/><path d="M3040 1782 3034.77 1819.68 2822 1895 2825.38 1857.94 3040 1782Z" fill="#FFFFFF" fill-rule="evenodd" fill-opacity="1"/><path d="M3040 1714 3035.17 1749.44 2944 1782 2948.86 1746.68 2948.86 1746.6 3040 1714Z" fill="#FFFFFF" fill-rule="evenodd" fill-opacity="1"/><path d="M2710 1782 2704.77 1819.68 2492 1895 2495.38 1857.94 2710 1782Z" fill="#FFFFFF" fill-rule="evenodd" fill-opacity="1"/><path d="M3040 1875.04 3040 2419.71 2794.35 2488 2794.35 2429.47 2982.66 2377.12 2984.65 1953.31 2853.07 2011.73 2849.62 2351.5 2794 2369.25 2797.45 2018.06C2797.45 1992.91 2811.77 1969.94 2834.38 1958.92L3039.96 1875Z" fill="#FFFFFF" fill-rule="evenodd" fill-opacity="1"/><path d="M2636 2134 2636 2192.54 2339.63 2275.03 2339.63 2361.55 2284 2377 2284 2281.91C2284 2252.35 2303.69 2226.4 2332.1 2218.49L2339.59 2216.41 2635.96 2134.04Z" fill="#FFFFFF" fill-rule="evenodd" fill-opacity="1"/><path d="M2751 1979.04 2751 2247.09C2751 2247.09 2695.33 2265.1 2695.33 2265.1L2695.33 2058.01C2695.33 2058.01 2503.67 2126.43 2503.67 2126.43L2503.67 2276.46 2599.5 2250.93 2599.5 2307.52 2503.67 2334.9C2476.16 2343.8 2448 2323.3 2448 2294.43L2448 2133.57C2448 2105.81 2465.44 2081.01 2491.61 2071.68L2751 1979Z" fill="#FFFFFF" fill-rule="evenodd" fill-opacity="1"/><path d="M2751 2305 2751 2363.74 2690.56 2379.78 2690.56 2380.09 2284 2488 2284 2429.19 2344.47 2413.14 2344.47 2412.87 2751 2305Z" fill="#FFFFFF" fill-rule="evenodd" fill-opacity="1"/><path d="M2221 2028 2221 2028C2221 2028 2220.08 2086.67 2220.08 2086.67L2165.87 2101.73 2165.37 2101.89 1775.11 2210.07 1711.08 2227.86 1319.63 2335.78 1319.74 2364.56 1264.12 2380 1264 2342.71C1264 2313.24 1283.65 2287.37 1312.14 2279.48L1319.63 2277.41 1775.99 2151.4 1775.99 2151.52 2165.34 2043.56 2220.96 2028.12Z" fill="#FFFFFF" fill-rule="evenodd" fill-opacity="1"/><path d="M2028.96 1876 2028.96 2036.45 1973.22 2051.87 1973.22 1964.95 1894.74 2002.54 1894.74 2073.58 1839 2089 1839 2008.87C1839 1983.75 1853.35 1960.89 1876.01 1949.88L2029 1876Z" fill="#FFFFFF" fill-rule="evenodd" fill-opacity="1"/><path d="M1813.96 1935 1813.96 2095.45 1758.51 2110.87 1758.51 2023.95 1680.45 2061.54 1680.45 2132.58 1625 2148 1625 2067.87C1625 2042.75 1639.27 2019.89 1661.81 2008.88L1814 1935Z" fill="#FFFFFF" fill-rule="evenodd" fill-opacity="1"/><path d="M1599.96 1995 1599.96 2155.45 1544.22 2170.87 1544.22 2083.95 1465.74 2121.54 1465.74 2192.58 1410 2208 1410 2127.87C1410 2102.75 1424.35 2079.89 1447.01 2068.88L1600 1995Z" fill="#FFFFFF" fill-rule="evenodd" fill-opacity="1"/><path d="M2406.96 1720.12 2406.96 2117.25C2406.96 2146.76 2387.31 2172.66 2358.83 2180.56L2351.34 2182.63 2166.93 2233.81 1897.11 2308.75 1897.11 2308.63 1264 2487 1264.92 2428.26 1898.03 2249.93 1962.06 2232.13 2351.34 2124.08 2351.65 1798.27 2220.06 1856.63 2221.02 1965.9 2215.49 1967.66 2166.85 1983.16 2166.85 1871.47C2166.85 1845.69 2181.94 1822.29 2205.39 1811.62L2407 1720Z" fill="#FFFFFF" fill-rule="evenodd" fill-opacity="1"/><path d="M2878 1714C2859.24 1714 2844 1729.25 2844 1747.99 2844 1760.25 2850.51 1770.98 2860.27 1776.91L2848.1 1781.24C2848.1 1781.24 2844.8 1805 2844.8 1805L2906.75 1783.12 2910.01 1759.48 2910.01 1759.37C2911.31 1755.8 2912 1751.97 2912 1747.99 2912 1729.25 2896.72 1714 2877.96 1714ZM2878 1734.15C2885.62 1734.15 2891.86 1740.36 2891.86 1747.99 2891.86 1755.61 2885.62 1761.78 2878 1761.78 2870.38 1761.78 2864.18 1755.57 2864.18 1747.99 2864.18 1740.4 2870.42 1734.15 2878 1734.15Z" fill="#FFFFFF" fill-rule="evenodd" fill-opacity="1"/><path d="M1934 1782C1915.24 1782 1900 1766.72 1900 1748 1900 1729.28 1915.24 1714 1934 1714 1952.76 1714 1968 1729.24 1968 1748 1968 1766.76 1952.72 1782 1934 1782ZM1934 1734.18C1926.38 1734.18 1920.18 1740.38 1920.18 1748 1920.18 1755.62 1926.38 1761.82 1934 1761.82 1941.62 1761.82 1947.82 1755.62 1947.82 1748 1947.82 1740.38 1941.62 1734.18 1934 1734.18Z" fill="#FFFFFF" fill-rule="evenodd" fill-opacity="1"/></g></g></svg>