<svg width="2690" height="1077" xmlns="http://www.w3.org/2000/svg" xmlns:xlink="http://www.w3.org/1999/xlink" xml:space="preserve" overflow="hidden"><g transform="translate(-27 -398)"><g><path d="M641.596 619.878C707.372 575.859 823.864 579.684 887.866 623.216 973.013 681.115 1009.67 763.118 1012.03 841.337 1012.89 865.522 1000.14 904.519 1003.33 921.461L1076.24 921.277C1088.31 921.316 1114.01 922.447 1123.15 919.003 1119.84 904.755 1121.36 854.849 1121.31 837.446L1121.9 656.457C1175.39 654.945 1247.87 656.391 1302.77 656.47 1305.52 725.015 1302.87 801.104 1302.71 870.148L1303.29 921.054C1340.99 920.975 1379.92 921.632 1417.71 921.974 1421.97 848.54 1416.93 770.545 1419.82 696.414 1419.74 683.546 1419.2 669.39 1420.13 656.654 1475.13 656.641 1545.25 655.379 1599.21 657.482 1599.9 672.321 1600.13 687.187 1599.85 702.039L1603.33 704.103C1612.74 700.962 1632.09 671.441 1640.42 663.002 1744.89 557.221 1923.99 577.331 2006.6 684.65 2066.91 763.026 2064.63 835.974 2051.95 921.001 2086.99 920.948 2159.02 922.394 2191.49 920.607 2187.55 910.276 2188.48 852.995 2188.42 839.51L2187.7 656.707C2248.11 656.444 2308.52 656.417 2368.94 656.628 2369.71 674.109 2369.44 692.931 2369.65 710.517 2370.38 780.455 2368.28 851.589 2369.63 921.132L2532.02 921.225 2530.45 751.092C2530.28 722.228 2528.69 685.544 2530.7 657.061L2710.59 656.785C2710.72 669.535 2712.18 702.867 2710.29 714.421 2714.97 754.272 2713.69 803.917 2712.66 844.412 2709.58 964.547 2716.7 1087.16 2711.08 1207.06 2688.49 1207.15 2650.62 1208.01 2629.26 1207.09 2543.96 1207.56 2458.69 1207.75 2373.39 1207.64L2372.67 1092.42C2372.47 1064.06 2373.51 1029.92 2367.32 1002.33 2346.74 1070.73 2304.45 1146.52 2210.52 1187.36 2155.62 1211.24 2101.84 1207.3 2038.19 1207.26L1873.42 1207.09 1305.05 1207.72C1302.98 1162.83 1305.99 1116.97 1305.06 1072.01 1304.57 1048.65 1305.34 1019.3 1299.96 996.341 1277.32 1067.13 1248.94 1141.78 1146.91 1184.78 1124.27 1194.52 1098.65 1201.04 1071.76 1203.89 1025.62 1208.98 916.476 1207.23 865.025 1207.18L551.271 1207.81C539.469 1279.48 499.32 1360.19 408.85 1406.72 340.537 1441.85 272.908 1444.15 196.632 1418.23 22.5386 1340.75 29.4911 1201 29.7275 1080.74L30.2005 921.067C85.4105 919.542 155.379 920.646 211.456 920.712 212.718 928.769 212.521 942.754 212.757 951.324 214.137 999.233 210.838 1046.29 210.852 1094.91 211.561 1126.7 201.271 1218.55 244.982 1240.43 340.788 1288.41 377.283 1197.36 371.264 1151.78 369.437 1137.95 371.159 1118.58 371.093 1109.17L370.633 1007.28 370.436 656.496 552.283 656.562C552.02 674.083 551.888 689.539 553.308 707.113 564.203 691.498 580.525 665.815 596.992 653.381 607.637 640.54 625.524 630.169 641.596 619.878ZM1887.28 968.411C1874.73 1006.57 1854.87 1030.16 1810.31 1055.87 1811.46 1064.19 1813.16 1087.89 1822.2 1093.07 2001.6 1051.78 2035.55 784.253 1870.81 785.568 1788.73 804.784 1776.95 879.48 1803.8 925.404 1820.44 953.834 1844.53 962.338 1887.28 968.411ZM558.249 1091.09C572.061 1092.4 587.569 1085.47 598.49 1079.96 666.566 1045.62 698.383 989.809 710.145 936.419 720.146 891.047 715.809 784.398 611.146 787.184 516.589 803.47 505.747 920.515 579.605 957.028 590.999 962.667 616.14 963.271 625.616 970.08 626.167 999.456 582.286 1039.73 546.251 1057.12 551.31 1069.37 554.819 1078.65 558.249 1091.09ZM1662.14 785.989C1633.68 790.562 1619.42 798.12 1603.15 815.076 1562.8 857.136 1568.82 932.002 1637.33 960.905 1646.78 964.888 1661.32 965.388 1672.53 966.018 1665.13 1002.52 1641.18 1034.54 1596.54 1058.52 1599.56 1068.47 1602.91 1085.61 1607.07 1094.12 1776.77 1062.93 1832.15 789.669 1662.14 785.989ZM827.82 785.962C743.566 800.171 733.604 873.013 752.634 918.556 766.735 952.309 788.84 957.475 835.271 970.132 840.922 1003.7 793.584 1038.02 758.981 1059.47 762.766 1070.13 766.196 1081.04 771.781 1091.34 781.98 1092.54 802.495 1083.59 811.155 1079.37 877.865 1046.87 904.385 996.381 920.471 946.198 934.27 903.086 935.322 796.135 843.248 786.948 838.136 786.449 832.984 786.12 827.82 785.962Z" fill="#EF8354" fill-rule="evenodd" fill-opacity="1"/><path d="M30.2004 920.463C85.3742 918.939 155.297 920.042 211.337 920.109 212.598 928.166 212.401 942.152 212.638 950.722 206.071 940.811 204.285 938.879 192.858 930.927 165.489 930.335 63.008 926.93 43.6098 932.872 34.679 950.486 39.3808 1156.8 41.5083 1184.05 43.0318 1202 45.9212 1219.87 50.2026 1237.63 68.1562 1310.97 106.966 1363.61 192.99 1407.36 196.457 1409.13 196.116 1414.51 196.523 1417.66 22.5435 1340.17 29.4915 1200.42 29.7277 1080.14L30.2004 920.463Z" fill="#EF8354" fill-rule="evenodd" fill-opacity="1"/><path d="M1121.53 656.347C1175.02 654.836 1247.49 656.281 1302.4 656.36 1305.15 724.844 1302.49 800.866 1302.33 869.849 1297.77 855.01 1300.9 831.332 1300.27 815.732 1298.29 765.672 1306.08 713.957 1295.28 664.331 1289.7 661.914 1274.71 662.637 1268.36 664.002 1273.67 667.588 1284.76 665.684 1291.9 664.699 1278.64 673.011 1171.46 655.651 1137.89 672.21 1115.28 696.951 1145.63 891.254 1122.78 918.661 1119.47 904.426 1120.99 854.563 1120.94 837.176L1121.53 656.347Z" fill="#EF8354" fill-rule="evenodd" fill-opacity="1"/><path d="M2187.64 655.879C2248.07 655.616 2308.5 655.589 2368.93 655.8 2369.7 673.34 2369.43 692.224 2369.64 709.87 2363.58 692.924 2363.37 683.969 2363.8 666.456 2317.69 671.401 2258.27 661.616 2200.61 667.656 2188.99 709.025 2208.18 901.722 2191.44 920.66 2187.49 910.295 2188.43 852.823 2188.36 839.293L2187.64 655.879Z" fill="#EF8354" fill-rule="evenodd" fill-opacity="1"/><path d="M2710.31 713.66C2714.96 753.586 2713.7 803.321 2712.66 843.892 2709.6 964.247 2716.69 1087.09 2711.09 1207.21 2688.6 1207.3 2650.91 1208.16 2629.64 1207.24 2639.61 1201.13 2683.93 1206.25 2702.52 1202.81L2702.61 1200.96C2694.16 1200.47 2695.77 1201.64 2691.44 1199.01 2714.02 1181.52 2706.08 1058.39 2706.03 1030.53L2708.66 824.68C2708.62 799.594 2706.06 735.703 2710.31 713.66Z" fill="#EF8354" fill-rule="evenodd" fill-opacity="1"/><path d="M1420.18 656.048C1475.06 656.035 1545.03 654.767 1598.88 656.88 1599.58 671.794 1599.8 686.733 1599.52 701.659 1594.12 687.961 1594.03 681.687 1593.01 667.421 1527.23 663.34 1489.84 664.132 1425.31 667.527 1422.97 676.311 1426.95 687.103 1419.86 696.006 1419.78 683.074 1419.25 668.848 1420.18 656.048Z" fill="#EF8354" fill-rule="evenodd" fill-opacity="1"/><path d="M1002.63 920.845 1076.14 920.661C1088.13 922.317 1106.86 921.949 1119.63 922.041 1097.52 930.071 1015.35 937.062 1002.63 920.845Z" fill="#EF8354" fill-rule="evenodd" fill-opacity="1"/><path d="M596.64 652.891C607.21 640.155 624.97 629.87 640.93 619.664L650.587 621.215C652.061 632.647 622.452 650.323 606.609 654.663 599.785 654.429 602.133 655.028 596.64 652.891Z" fill="#EF8354" fill-rule="evenodd" fill-opacity="1"/><path d="M2367.64 922.305C2393.92 921.653 2502.91 920.989 2522.64 923.023L2522.32 926.163C2487.49 927.745 2392.7 934.994 2367.64 922.305Z" fill="#EF8354" fill-rule="evenodd" fill-opacity="1"/><path d="M1098.74 1260.67C1121.73 1260.31 1143.74 1267.69 1153.94 1280.83 1205.37 1347.1 1160.79 1436.21 1068.31 1474.66 1061.86 1468.08 1062.83 1457.93 1062.34 1449.92 1095.71 1430.32 1104.82 1414.77 1118.2 1387.93 1113.6 1387.37 1109.01 1386.75 1104.46 1386.05 1026.95 1373.9 1024.46 1285.76 1098.74 1260.67Z" fill="#EF8354" fill-rule="evenodd" fill-opacity="1"/><path d="M2502 403.661C2547.32 408.152 2562.1 447.804 2566.18 472.691 2573.43 515.499 2553.5 558.373 2510.89 591.629 2500.48 599.723 2475.87 614.689 2459.66 615.661 2458.32 607.318 2454.78 601.97 2450.58 594.086L2456.96 590.289C2487.68 572.314 2501.13 556.993 2507.69 530.702 2479.43 525.84 2456.98 517.286 2447.65 498.497 2429.26 461.456 2440.58 418.052 2502 403.661Z" fill="#EF8354" fill-rule="evenodd" fill-opacity="1"/><path d="M1248.67 1262.66C1274.22 1262.99 1296.53 1269.92 1306.45 1285.7 1345.21 1347.29 1308.19 1443.29 1213.58 1474.66 1211.36 1468.14 1210.31 1455.83 1209.39 1448.77 1244.95 1424.93 1249.82 1416.41 1264.48 1384.45 1257.85 1383.82 1242.31 1382.55 1236.69 1380.71 1189.12 1365.2 1184.09 1319.64 1202.64 1291.3 1212.44 1276.32 1226.12 1268.59 1248.67 1262.66Z" fill="#EF8354" fill-rule="evenodd" fill-opacity="1"/><path d="M2652.62 529.553C2626.25 524.573 2614.14 522.13 2597.53 504.842 2568.4 474.533 2593.36 397.919 2665.94 408.691 2678.6 410.568 2690.99 421.26 2696.62 428.889 2712.23 450.01 2718.33 496.578 2706.27 518.005 2699.95 560.938 2661.4 595.292 2607.67 619.661 2604.22 609.52 2600.95 601.86 2602.76 591.364 2604.28 588.763 2604.28 588.644 2607.85 586.95 2643.22 570.226 2646.26 555.906 2652.62 529.553Z" fill="#EF8354" fill-rule="evenodd" fill-opacity="1"/><path d="M2602.15 591.267C2608.96 593.719 2608.14 595.459 2620.18 599.163 2662.59 596.566 2690.68 525.964 2705.64 517.66 2699.32 560.738 2660.77 595.208 2607.06 619.66 2603.61 609.484 2600.35 601.799 2602.15 591.267Z" fill="#EF8354" fill-rule="evenodd" fill-opacity="1"/><path d="M2348.32 507.798C2338.92 562.007 2254.66 585.838 2216.48 523.918 2190.36 481.553 2231.34 393.175 2311.79 424.089 2345.28 441.127 2363.28 482.576 2348.32 507.798Z" fill="#EF8354" fill-rule="evenodd" fill-opacity="1"/><path d="M2347.64 507.798C2338.28 562.007 2254.43 585.838 2216.44 523.918 2190.45 481.553 2231.23 393.175 2311.29 424.089L2305.86 429.446C2240.63 428.487 2225.08 448.432 2220 489.108 2217.4 509.923 2229.76 530.331 2252.32 545.126 2304.78 579.543 2329.73 514.396 2347.64 507.798Z" fill="#EF8354" fill-rule="evenodd" fill-opacity="1"/><path d="M1842.71 1292.66C1871.21 1295.52 1884.23 1321.71 1896.62 1337.43 1896.75 1326.03 1894.92 1303.48 1905.92 1295.22L1909.83 1296.75C1918.18 1310.99 1919.46 1360.72 1910.23 1373.66 1880.18 1363.62 1883.49 1346.69 1861.85 1333.18 1855.36 1339.44 1867.97 1365.11 1852.36 1371.08L1845.74 1369.15C1837.97 1361.09 1840.92 1304.47 1842.71 1292.66Z" fill="#EF8354" fill-rule="evenodd" fill-opacity="1"/><path d="M1742.33 1292.66C1749.15 1293.34 1749.26 1293.47 1755.61 1295.28 1767.29 1304.68 1792.83 1361.32 1785.26 1371.88L1777.47 1372.33C1770.41 1369.09 1771.05 1365.51 1767.79 1358.74L1761.97 1357.13C1709.47 1356.45 1737.93 1365.73 1713.69 1373.66L1710.72 1371.04C1708.88 1362.37 1736.3 1304.74 1742.33 1292.66Z" fill="#EF8354" fill-rule="evenodd" fill-opacity="1"/><path d="M2083.69 1293.59C2102.1 1293.19 2147.92 1288.13 2143.72 1306.63 2135.26 1310.74 2115.97 1310.6 2104.45 1311.15 2098.8 1316.71 2099.99 1313.83 2099.67 1319.9 2106.38 1324.15 2120.71 1322.84 2134.49 1326.69 2139.94 1331.79 2138.83 1329.04 2137.83 1335.23 2122.03 1345.47 2108.78 1330.57 2097.92 1351.8 2110.15 1361.37 2150.31 1354.31 2145.18 1367.56 2131.22 1376.02 2105.11 1373.27 2083.55 1373.12 2082.1 1349.97 2082.55 1316.53 2083.69 1293.59Z" fill="#EF8354" fill-rule="evenodd" fill-opacity="1"/><path d="M2204.48 1291.9C2219.5 1291.78 2261.98 1289.04 2257.28 1305.46 2248.98 1309.44 2234.4 1309.15 2221.44 1311.55 2217.24 1315.37 2217.1 1315.04 2217.14 1319.68 2227.72 1326.06 2245.59 1318.53 2252.04 1328.4 2246.44 1344.76 2238.4 1333.19 2219.29 1341.5 2214.47 1345.92 2215.58 1348.52 2215.76 1354.05L2215.87 1356.18C2229.58 1359.33 2238.55 1355.78 2255.3 1360.16 2258.41 1364.85 2257.92 1362.39 2255.74 1367.84 2241.97 1374.77 2217.48 1372.29 2199.15 1371.95 2198.73 1348.52 2196.94 1324.54 2197.94 1301.09 2198.2 1295.05 2199.27 1294.73 2204.48 1291.9Z" fill="#EF8354" fill-rule="evenodd" fill-opacity="1"/><path d="M1991.66 1292.79C2008.1 1292.49 2023.58 1291.67 2027.91 1304.04L2024.52 1307.37C2015.26 1310.26 2012.51 1309.53 2001.61 1308.97L1998.06 1308.78C1990.82 1311.69 1992.91 1309.72 1990.73 1314.5 2001.34 1331.25 2074.14 1353.03 2002.38 1373.66 1985.16 1371.66 1971.64 1368.65 1965.64 1356.55 1975.14 1348.75 1996.16 1360.17 2009.81 1354.02 2006.86 1341.95 1925.24 1317.59 1991.66 1292.79Z" fill="#EF8354" fill-rule="evenodd" fill-opacity="1"/><path d="M2337.24 1291.66C2352.62 1292.74 2364.01 1295.38 2368.49 1305.99 2359.6 1313.87 2342.77 1306.13 2328.67 1311.18 2319.37 1326.96 2371.7 1330 2372.63 1351.74 2373.2 1365.08 2350.49 1371.78 2334.65 1373.66 2321.36 1371.91 2300.6 1365.54 2308.46 1355.01 2323.22 1352.16 2342.09 1361.9 2347.26 1353.94 2340.82 1339.13 2261.37 1309.4 2337.24 1291.66Z" fill="#EF8354" fill-rule="evenodd" fill-opacity="1"/><path d="M1608.57 1294.12C1623 1293.88 1657.98 1292.36 1669.68 1296.65L1670.64 1299.79C1665.03 1305.13 1656.62 1307.85 1648.07 1311.36 1644.49 1322.07 1646 1351.44 1646.05 1364.37 1643.53 1370.51 1646.17 1368.34 1639.2 1371.66L1634.12 1369.82C1623.67 1357.79 1631.83 1328.91 1628.71 1312.96 1620.14 1306.18 1611.93 1310.75 1602.64 1304.2 1602.85 1299.22 1604.53 1298.42 1608.57 1294.12Z" fill="#EF8354" fill-rule="evenodd" fill-opacity="1"/></g></g></svg>